<svg width="30" height="22" viewBox="0 0 30 22" fill="none" xmlns="http://www.w3.org/2000/svg">
<path d="M7.01489 12.4781C7.01828 12.5459 7.00786 12.6136 6.98425 12.6771C6.96065 12.7407 6.92436 12.7988 6.87759 12.8479C6.83081 12.8971 6.77454 12.9361 6.71219 12.9628C6.64984 12.9895 6.58271 13.0032 6.51489 13.0031H0.999892C0.774186 13.0035 0.555002 12.9274 0.377983 12.7874C0.200964 12.6474 0.0765217 12.4516 0.0248917 12.2319C-0.0072571 12.0815 -0.00577506 11.9258 0.0292318 11.7761C0.0642386 11.6263 0.131905 11.4862 0.227392 11.3656C1.10965 10.1956 2.28025 9.27436 3.62489 8.69187C3.03455 8.15362 2.58177 7.48176 2.30449 6.73254C2.0272 5.98333 1.93347 5.17857 2.03116 4.38568C2.12884 3.5928 2.4151 2.83486 2.86594 2.17535C3.31679 1.51584 3.9191 0.973961 4.62243 0.595098C5.32576 0.216234 6.10963 0.0114158 6.9084 -0.00220299C7.70717 -0.0158218 8.49757 0.162155 9.21341 0.516822C9.92925 0.871489 10.5497 1.39252 11.0227 2.03628C11.4958 2.68003 11.8077 3.42777 11.9324 4.21687C11.9485 4.32298 11.9295 4.43145 11.8783 4.52577C11.827 4.62009 11.7464 4.69509 11.6486 4.73937C10.2616 5.38059 9.08697 6.40517 8.26327 7.69222C7.43957 8.97926 7.0012 10.4751 6.99989 12.0031C6.99989 12.1631 6.99989 12.3206 7.01489 12.4781ZM29.7649 11.3644C28.8847 10.1957 27.7167 9.27497 26.3749 8.69187C26.9652 8.15362 27.418 7.48176 27.6953 6.73254C27.9726 5.98333 28.0663 5.17857 27.9686 4.38568C27.8709 3.5928 27.5847 2.83486 27.1338 2.17535C26.683 1.51584 26.0807 0.973961 25.3774 0.595098C24.674 0.216234 23.8901 0.0114158 23.0914 -0.00220299C22.2926 -0.0158218 21.5022 0.162155 20.7864 0.516822C20.0705 0.871489 19.4501 1.39252 18.977 2.03628C18.504 2.68003 18.192 3.42777 18.0674 4.21687C18.0513 4.32298 18.0703 4.43145 18.1215 4.52577C18.1727 4.62009 18.2534 4.69509 18.3511 4.73937C19.7382 5.38059 20.9128 6.40517 21.7365 7.69222C22.5602 8.97926 22.9986 10.4751 22.9999 12.0031C22.9999 12.1631 22.9999 12.3206 22.9849 12.4781C22.9815 12.5459 22.9919 12.6136 23.0155 12.6771C23.0391 12.7407 23.0754 12.7988 23.1222 12.8479C23.169 12.8971 23.2252 12.9361 23.2876 12.9628C23.3499 12.9895 23.4171 13.0032 23.4849 13.0031H28.9999C29.2256 13.0035 29.4448 12.9274 29.6218 12.7874C29.7988 12.6474 29.9233 12.4516 29.9749 12.2319C30.0072 12.0812 30.0057 11.9252 29.9705 11.7752C29.9353 11.6252 29.8672 11.4849 29.7711 11.3644H29.7649ZM18.6399 16.7619C19.6356 15.9993 20.3673 14.944 20.7322 13.7441C21.0971 12.5442 21.0768 11.2601 20.6742 10.0724C20.2717 8.88459 19.507 7.85282 18.4878 7.12208C17.4685 6.39133 16.2459 5.99834 14.9918 5.99834C13.7376 5.99834 12.515 6.39133 11.4958 7.12208C10.4765 7.85282 9.71186 8.88459 9.30929 10.0724C8.90671 11.2601 8.88645 12.5442 9.25134 13.7441C9.61624 14.944 10.348 15.9993 11.3436 16.7619C9.57681 17.5274 8.10147 18.8385 7.13364 20.5031C7.04586 20.6552 6.99966 20.8276 6.99967 21.0032C6.99968 21.1787 7.0459 21.3512 7.1337 21.5032C7.22149 21.6552 7.34776 21.7815 7.49981 21.8692C7.65186 21.957 7.82434 22.0032 7.99989 22.0031H21.9999C22.1754 22.0032 22.3479 21.957 22.5 21.8692C22.652 21.7815 22.7783 21.6552 22.8661 21.5032C22.9539 21.3512 23.0001 21.1787 23.0001 21.0032C23.0001 20.8276 22.9539 20.6552 22.8661 20.5031C21.8962 18.8374 20.4182 17.5262 18.6486 16.7619H18.6399Z" fill="url(#paint0_linear_4102_383)"/>
<defs>
<linearGradient id="paint0_linear_4102_383" x1="0.00183105" y1="11.0001" x2="29.9981" y2="11.0001" gradientUnits="userSpaceOnUse">
<stop stop-color="#FC4A1A"/>
<stop offset="1" stop-color="#F7B733"/>
</linearGradient>
</defs>
</svg>
